<?xml version="1.0" encoding="UTF-8"?>
<svg id="Layer_1" data-name="Layer 1" xmlns="http://www.w3.org/2000/svg" viewBox="0 0 72 72">
  <defs>
    <style>
      .cls-1 {
        fill: #61545b;
      }

      .cls-1, .cls-2 {
        stroke-width: 0px;
      }

      .cls-2 {
        fill: #efebe0;
      }
    </style>
  </defs>
  <circle class="cls-1" cx="36" cy="36" r="36"/>
  <path id="primary" class="cls-2" d="m39.01,26.97h4.51c.83,0,1.5-.67,1.5-1.5v-3.01c0-.83-.67-1.5-1.5-1.5h-4.51c-4.15,0-7.52,3.37-7.52,7.52v4.51h-3.01c-.83,0-1.5.67-1.5,1.5v3.01c0,.83.67,1.5,1.5,1.5h3.01v10.53c0,.83.67,1.5,1.5,1.5h3.01c.83,0,1.5-.67,1.5-1.5v-10.53h3.34c.71.02,1.33-.46,1.5-1.14l.75-3.01c.2-.81-.29-1.62-1.1-1.82-.13-.03-.27-.05-.41-.04h-4.09v-4.51c0-.83.67-1.5,1.5-1.5Z"/>
</svg>