<?xml version="1.0" encoding="UTF-8"?>
<svg id="Layer_1" data-name="Layer 1" xmlns="http://www.w3.org/2000/svg" viewBox="0 0 72 72">
  <defs>
    <style>
      .cls-1 {
        fill-rule: evenodd;
      }

      .cls-1, .cls-2 {
        fill: #61545b;
      }

      .cls-1, .cls-2, .cls-3 {
        stroke-width: 0px;
      }

      .cls-3 {
        fill: #efebe0;
      }
    </style>
  </defs>
  <circle class="cls-3" cx="36" cy="36" r="36"/>
  <g>
    <path class="cls-1" d="m36,44.15c4.5,0,8.15-3.65,8.15-8.15s-3.65-8.15-8.15-8.15-8.15,3.65-8.15,8.15,3.65,8.15,8.15,8.15Zm0-2.72c3,0,5.43-2.43,5.43-5.43s-2.43-5.43-5.43-5.43-5.43,2.43-5.43,5.43,2.43,5.43,5.43,5.43Z"/>
    <path class="cls-2" d="m44.15,26.49c-.75,0-1.36.61-1.36,1.36s.61,1.36,1.36,1.36,1.36-.61,1.36-1.36-.61-1.36-1.36-1.36Z"/>
    <path class="cls-1" d="m21.95,25.51c-.89,1.74-.89,4.02-.89,8.59v3.8c0,4.56,0,6.84.89,8.59.78,1.53,2.03,2.78,3.56,3.56,1.74.89,4.02.89,8.59.89h3.8c4.56,0,6.84,0,8.59-.89,1.53-.78,2.78-2.03,3.56-3.56.89-1.74.89-4.02.89-8.59v-3.8c0-4.56,0-6.84-.89-8.59-.78-1.53-2.03-2.78-3.56-3.56-1.74-.89-4.02-.89-8.59-.89h-3.8c-4.56,0-6.84,0-8.59.89-1.53.78-2.78,2.03-3.56,3.56Zm15.95-1.73h-3.8c-2.33,0-3.91,0-5.13.1-1.19.1-1.8.27-2.22.49-1.02.52-1.85,1.35-2.37,2.37-.22.42-.39,1.03-.49,2.22-.1,1.22-.1,2.8-.1,5.13v3.8c0,2.33,0,3.91.1,5.13.1,1.19.27,1.8.49,2.22.52,1.02,1.35,1.85,2.37,2.37.42.22,1.03.39,2.22.49,1.22.1,2.8.1,5.13.1h3.8c2.33,0,3.91,0,5.13-.1,1.19-.1,1.8-.27,2.22-.49,1.02-.52,1.85-1.35,2.37-2.37.22-.42.39-1.03.49-2.22.1-1.22.1-2.8.1-5.13v-3.8c0-2.33,0-3.91-.1-5.13-.1-1.19-.27-1.8-.49-2.22-.52-1.02-1.35-1.85-2.37-2.37-.42-.22-1.03-.39-2.22-.49-1.22-.1-2.8-.1-5.13-.1Z"/>
  </g>
</svg>