<?xml version="1.0" encoding="UTF-8"?>
<svg id="Layer_1" data-name="Layer 1" xmlns="http://www.w3.org/2000/svg" viewBox="0 0 72 72">
  <defs>
    <style>
      .cls-1 {
        fill: #efebe0;
        fill-rule: evenodd;
      }

      .cls-1, .cls-2 {
        stroke-width: 0px;
      }

      .cls-2 {
        fill: #61545b;
      }
    </style>
  </defs>
  <circle class="cls-2" cx="36" cy="36" r="36"/>
  <g id="Page-1">
    <g id="Dribbble-Light-Preview">
      <g id="icons">
        <path id="twitter-_154_" data-name="twitter-[#154]" class="cls-1" d="m29.63,49.73c12.95,0,20.04-10.57,20.04-19.73,0-.3,0-.6-.02-.9,1.38-.98,2.57-2.2,3.51-3.59-1.28.56-2.65.93-4.04,1.09,1.47-.87,2.57-2.23,3.1-3.84-1.38.81-2.9,1.38-4.47,1.68-2.67-2.79-7.13-2.93-9.96-.3-1.83,1.69-2.61,4.22-2.04,6.63-5.66-.28-10.94-2.91-14.51-7.24-1.87,3.17-.91,7.22,2.18,9.25-1.12-.03-2.22-.33-3.2-.87v.09c0,3.3,2.36,6.14,5.65,6.8-1.04.28-2.12.32-3.18.12.92,2.83,3.57,4.76,6.58,4.82-2.49,1.93-5.57,2.98-8.75,2.97-.56,0-1.12-.03-1.68-.1,3.22,2.03,6.97,3.11,10.79,3.11"/>
      </g>
    </g>
  </g>
</svg>