<?xml version="1.0" encoding="UTF-8"?>
<svg id="Layer_1" data-name="Layer 1" xmlns="http://www.w3.org/2000/svg" viewBox="0 0 72 72">
  <defs>
    <style>
      .cls-1 {
        fill: #61545b;
      }

      .cls-1, .cls-2 {
        stroke-width: 0px;
      }

      .cls-2 {
        fill: #efebe0;
      }
    </style>
  </defs>
  <circle class="cls-1" cx="36" cy="36" r="36"/>
  <g id="social-youtube">
    <g id="Lozenge">
      <path class="cls-2" d="m55.52,28.32s-.5-2.5-1.5-3.84c-1.5-1.5-3.34-1.33-4-1.5-5.51-.33-14.02-.33-14.02-.33h0s-8.51,0-14.02.33c-.67.17-2.5.17-4,1.67-1.17,1.17-1.5,3.84-1.5,3.84,0,0-.5,3.17-.5,6.17v2.84c0,3.17.5,6.17.5,6.17,0,0,.5,2.5,1.5,3.84,1.5,1.5,3.5,1.33,4.5,1.5,3,.33,13.51.33,13.51.33,0,0,8.51,0,14.02-.33.67-.17,2.5-.17,4-1.67,1.17-1.17,1.5-3.84,1.5-3.84,0,0,.5-3.17.5-6.01v-2.84c0-3.17-.5-6.34-.5-6.34Zm-24.03,12.85v-11.18l11.51,5.67-11.51,5.51Z"/>
    </g>
  </g>
</svg>