<?xml version="1.0" encoding="UTF-8"?>
<svg id="Layer_1" data-name="Layer 1" xmlns="http://www.w3.org/2000/svg" viewBox="0 0 189.29 189.99">
  <defs>
    <style>
      .cls-1 {
        fill: #585759;
        opacity: .2;
        stroke-width: 0px;
      }
    </style>
  </defs>
  <path class="cls-1" d="m185.02,55.6L134.04,4.62c-.89-.89-2.09-1.38-3.34-1.38H58.6c-1.25,0-2.46.5-3.34,1.38L4.27,55.6c-.89.89-1.38,2.09-1.38,3.34v72.1c0,1.25.5,2.46,1.38,3.34l50.98,50.98c.89.89,2.09,1.38,3.34,1.38h72.1c1.25,0,2.46-.5,3.34-1.38l50.98-50.98c.89-.89,1.38-2.09,1.38-3.34V58.95c0-1.25-.5-2.46-1.38-3.34ZM57.01,173.76l-12.16-12.16v-13.54h12.16v25.69Zm90.71-41.09h25.64l-12.16,12.16h-13.48v-12.16Zm-.05,15.32h10.38l-10.38,10.38v-10.38Zm28.86-18.48h-28.8v-32.88h29.22v32.46l-.42.42Zm.42-68.6v32.46h-29.22v-32.83h28.85l.38.38Zm-29.22-15.69h13.53l12.16,12.16h-25.68v-12.16Zm10.37-3.16h-10.42v-10.42l10.42,10.42Zm-13.58-13.58v13.45h-12.2v-25.65l12.2,12.2Zm-14.04,16.72c.08.01.17.03.26.03h13.73v48.15h-12.05v-34.45c0-.9-.73-1.63-1.63-1.63h-31.4v-12.09h31.1Zm-70.24,51.45h29.69v32.82h-29.69v-32.82Zm0-3.27v-32.82h29.69v32.82h-29.69Zm39.14,3.27h29.77v32.82h-29.77v-32.82Zm0-3.27v-32.82h29.77v32.82h-29.77Zm-9.45-36.08h-31.32c-.9,0-1.63.73-1.63,1.63v34.45h-12.05v-48.18h45.01v12.09Zm-61.76,87.63l-12.2-12.2h25.68v12.2h-13.48Zm3.16,3.16h10.38v10.38l-10.38-10.38Zm10.32-18.52H12.8l-.46-.46v-32.46h29.3v32.91Zm-29.3-36.18v-32.46l.41-.41h28.89v32.87H12.34Zm29.3-36.03H15.92l12.2-12.2h13.53v12.2Zm.05-15.36h-10.42l10.42-10.42v10.42Zm3.16-.05v-13.53l12.16-12.16v25.68h-12.16Zm.05,102.81v-48.1h12.05v34.46c0,.9.73,1.63,1.63,1.63h31.32v12h-45.01Zm54.46-12h31.4c.9,0,1.63-.73,1.63-1.63v-34.46h12.05v48.1h-45.09v-12Zm45.14,15.27v13.53l-12.2,12.2v-25.73h12.2Zm-15.36-134.89v28.81h-29.78V12.69h29.36l.41.41Zm-39.23-.41v29.22h-29.74V13.07l.38-.38h29.36Zm-29.74,164.23v-28.93h29.74v29.3h-29.36l-.38-.38Zm39.2.38v-29.3h29.78v28.89l-.41.41h-29.36Z"/>
</svg>