<?xml version="1.0" encoding="UTF-8"?>
<svg id="Layer_1" data-name="Layer 1" xmlns="http://www.w3.org/2000/svg" viewBox="0 0 189.29 189.99">
  <defs>
    <style>
      .cls-1 {
        fill: #585759;
        opacity: .2;
        stroke-width: 0px;
      }
    </style>
  </defs>
  <path class="cls-1" d="m185.02,55.61L134.04,4.63c-.89-.89-2.09-1.38-3.34-1.38H58.6c-1.25,0-2.46.5-3.34,1.38L4.27,55.61c-.89.89-1.38,2.09-1.38,3.34v72.1c0,1.25.5,2.46,1.38,3.34l50.98,50.98c.89.89,2.09,1.38,3.34,1.38h72.1c1.25,0,2.46-.5,3.34-1.38l50.98-50.98c.89-.89,1.38-2.09,1.38-3.34V58.95c0-1.25-.5-2.46-1.38-3.34Zm-73.52,109.52h-15.22v-33.88h15.22v33.88ZM93.01,24.96v33.79h-15.26V24.96h15.26Zm71.67,116.4l-3.47,3.47h-13.54v-12.16h17.01v8.69Zm3.27-8.69h5.42l-5.42,5.42v-5.42Zm-9.9,15.32l-10.38,10.38v-10.38h10.38Zm18.48-18.48h-8.58v-15.93s0-.03,0-.04h0v-16.9h9v32.46l-.42.42Zm-63.39-17.57c-.9,0-1.63.73-1.63,1.63v14.4h-15.22v-31.34h31.34v15.31h-14.49Zm14.49,3.27v12.76h-12.85v-12.76h12.85Zm-65.95-.04h12.81v12.81h-12.81v-12.81Zm14.44-3.27h-14.44v-15.27h31.34v31.34h-15.26v-14.44c0-.9-.73-1.63-1.63-1.63Zm-54.81,17.65h-8.5l-.46-.46v-32.46h8.96v32.91Zm20.4,15.36h-13.54l-3.59-3.59v-8.61h17.13v12.2Zm15.32,20.17h-8.69l-3.47-3.47v-13.54h12.16v17.01ZM24.57,48.68l3.55-3.55h13.58v12.2h-17.13v-8.65Zm-3.27,8.65h-5.38l5.38-5.38v5.38Zm9.98-15.36l10.42-10.42v10.42h-10.42Zm13.58-13.58l3.43-3.43h8.73v17.01h-12.16v-13.58ZM12.75,60.5h8.54v32.87h-8.96v-32.46l.41-.41Zm63.36,17.65c.9,0,1.63-.73,1.63-1.63v-14.49h15.26v31.34h-31.34v-15.22h14.44Zm-14.44-3.27v-12.85h12.81v12.85h-12.81Zm65.95-.04h-12.85v-12.81h12.85v12.81Zm-14.49,3.27h14.49v15.26h-31.34v-31.34h15.22v14.44c0,.9.73,1.63,1.63,1.63Zm51.54,15.26h-33.79v-15.26h33.79v15.26Zm-106.28,0H24.57v-15.22h33.83v15.22Zm-16.7,65.08l-10.38-10.38h10.38v10.38Zm-20.4-20.4l-5.34-5.34h5.34v5.34Zm3.27-41.41h33.83v15.27H24.57v-15.27Zm106.32,0h33.79v15.31h-33.79v-15.31Zm46.06-35.73v32.46h-9v-32.83h8.62l.38.38Zm-29.28-15.69h13.58l3.43,3.43v8.73h-17.01v-12.16Zm10.42-3.16h-10.42v-10.42l10.42,10.42Zm9.86,9.86l5.46,5.46h-5.46v-5.46Zm-30.26-30.26h-5.38v-5.38l5.38,5.38Zm3.27,3.27l3.55,3.55v13.58h-12.2v-17.13h8.65Zm-10.23,20.29h13.78v13.74c0,.87.71,1.58,1.58,1.58h18.59v14.3h-33.79v-14.44c0-.9-.73-1.63-1.63-1.63h-14.49V24.92h14.38v18.71c0,.87.71,1.58,1.58,1.58Zm-19.23,13.54h-15.22V24.92h15.22v33.83Zm-37.02,0h-14.44c-.9,0-1.63.73-1.63,1.63v14.49H24.57v-14.38h18.71c.87,0,1.58-.71,1.58-1.58v-13.78h13.74c.87,0,1.58-.71,1.58-1.58v-18.59h14.3v33.79Zm-17.46-37.06h-5.46l5.46-5.46v5.46Zm-5.42,146.65h5.42v5.42l-5.42-5.42Zm7-23.44h-13.74v-13.78c0-.87-.71-1.58-1.58-1.58h-18.71v-14.38h33.83v14.44c0,.9.73,1.63,1.63,1.63h14.44v33.83h-14.3v-18.59c0-.87-.71-1.58-1.58-1.58Zm19.15-13.66h15.26v33.83h-15.26v-33.83Zm37.02,0h14.49c.9,0,1.63-.73,1.63-1.63v-14.4h33.79v14.3h-18.59c-.87,0-1.58.71-1.58,1.58v13.74h-13.78c-.87,0-1.58.71-1.58,1.58v18.71h-14.38v-33.88Zm17.54,16.75h12.2v13.54l-3.59,3.59h-8.61v-17.13Zm5.34,20.4l-5.34,5.34v-5.34h5.34Zm-8.5-155.28v8.54h-32.87v-8.96h32.46l.41.41Zm-36.14-.41v9h-32.83v-8.62l.38-.38h32.46Zm-32.83,164.23v-8.58h32.83v8.96h-32.46l-.38-.38Zm36.1.38v-8.91h32.87v8.5l-.41.41h-32.46Z"/>
</svg>