<?xml version="1.0" encoding="UTF-8"?>
<svg id="Layer_1" data-name="Layer 1" xmlns="http://www.w3.org/2000/svg" viewBox="0 0 189.29 189.99">
  <defs>
    <style>
      .cls-1 {
        fill: #585759;
        opacity: .2;
        stroke-width: 0px;
      }
    </style>
  </defs>
  <path class="cls-1" d="m185.02,55.61L134.04,4.63c-.89-.89-2.09-1.38-3.34-1.38H58.6c-1.25,0-2.46.5-3.34,1.38L4.27,55.61c-.89.89-1.38,2.09-1.38,3.34v72.1c0,1.25.5,2.46,1.38,3.34l50.98,50.98c.89.89,2.09,1.38,3.34,1.38h72.1c1.25,0,2.46-.5,3.34-1.38l50.98-50.98c.89-.89,1.38-2.09,1.38-3.34V58.95c0-1.25-.5-2.46-1.38-3.34Zm-72.13,69.11h10.01c.81,0,1.46-.65,1.46-1.46v-8.76h27.62v15.05h-21.29c-.87,0-1.58.71-1.58,1.58v22.46h-16.23v-28.87Zm-36.48-59.43h-10.01c-.81,0-1.46.65-1.46,1.46v8.8h-27.62v-15.05h21.29c.87,0,1.58-.71,1.58-1.58v-22.46h16.23v28.83Zm78.5,85.85v-18.43h18.43l-18.43,18.43Zm21.6-21.6h-21.6v-16.51c0-.81-.65-1.46-1.46-1.46h-29.08v-14.93h52.59v32.46l-.45.45Zm.45-68.63v32.46h-52.59v-14.93h29.08c.81,0,1.46-.65,1.46-1.46v-16.51h21.6l.45.45Zm-3.61-3.61h-18.43v-18.43l18.43,18.43Zm-23.8-23.8h-17.26v-17.26l17.26,17.26Zm2.45,2.92v20.88h-19.71v-20.88h19.71Zm-21.29,24.04h21.29v15.05h-27.62v-8.76c0-.81-.65-1.46-1.46-1.46h-10.01v-28.87h16.23v22.46c0,.87.71,1.58,1.58,1.58Zm-9.26,7.75v7.3h-8.55v-7.3h8.55Zm-10.01,10.22h10.01v14.93h-25.16v-25.16h13.69v8.76c0,.81.65,1.46,1.46,1.46Zm-18.42,14.93h-25.16v-14.9h10.01c.81,0,1.46-.65,1.46-1.46v-8.8h13.69v25.16Zm-58.62,19.7v16.51H12.83l-.49-.49v-32.46h52.59v14.97h-29.08c-.81,0-1.46.65-1.46,1.46Zm-18.4,19.68h18.4v18.39l-18.4-18.39Zm-3.65-39.38v-32.46l.41-.41h21.63v16.51c0,.81.65,1.46,1.46,1.46h29.08v14.9H12.34Zm22.05-54.5v18.47H15.91l18.47-18.47Zm42.01,36.69h-8.55v-7.34h8.55v7.34Zm-19.39-18.22h-19.71v-20.88h19.71v20.88Zm-17.3-23.8l17.3-17.3v17.3h-17.3Zm.08,123.01h17.22v17.22l-17.22-17.22Zm-2.48-2.92v-20.88h19.71v20.88h-19.71Zm21.29-24.04h-21.29v-15.05h27.62v8.72c0,.81.65,1.46,1.46,1.46h10.01v28.91h-16.23v-22.46c0-.87-.71-1.58-1.58-1.58Zm9.26-7.79v-7.26h8.55v7.26h-8.55Zm10.01-10.18h-10.01v-14.97h25.16v25.16h-13.69v-8.72c0-.81-.65-1.46-1.46-1.46Zm18.42-14.97h25.16v14.93h-10.01c-.81,0-1.46.65-1.46,1.46v8.76h-13.69v-25.16Zm16.61,17.85h8.55v7.3h-8.55v-7.3Zm19.39,18.22h19.71v20.88h-19.71v-20.88Zm17.26,23.8l-17.26,17.26v-17.26h17.26ZM129.11,13.07v20.42h-17.69c-.81,0-1.46.65-1.46,1.46v30.33h-13.69V12.7h32.46l.38.38Zm-36.1-.38v52.59h-13.69v-30.29c0-.81-.65-1.46-1.46-1.46h-17.69V13.07l.38-.38h32.46Zm-32.83,164.23v-20.38h17.69c.81,0,1.46-.65,1.46-1.46v-30.37h13.69v52.59h-32.46l-.38-.38Zm36.1.38v-52.59h13.69v30.33c0,.81.65,1.46,1.46,1.46h17.69v20.42l-.38.38h-32.46Z"/>
</svg>