<?xml version="1.0" encoding="UTF-8"?>
<svg id="Layer_1" data-name="Layer 1" xmlns="http://www.w3.org/2000/svg" viewBox="0 0 96.84 83.23">
  <defs>
    <style>
      .cls-1 {
        fill: #f0ece0;
        stroke-width: 0px;
      }
    </style>
  </defs>
  <path class="cls-1" d="m41.48,83.23c-1.78,0-3.55-.68-4.9-2.03L1.9,46.52c-.72-.72-1.25-1.56-1.59-2.46-.23-.61-.38-1.26-.43-1.95,0,0,0,0,0,0h0c-.01-.17-.02-.33-.02-.5s0-.32.02-.49h0s0-.01,0-.01c.05-.68.2-1.33.43-1.95.34-.9.87-1.74,1.59-2.46L36.58,2.03c2.71-2.71,7.1-2.71,9.81,0,2.71,2.71,2.71,7.1,0,9.81l-22.84,22.84h66.49c3.83,0,6.94,3.11,6.94,6.94s-3.11,6.94-6.94,6.94H23.55l22.84,22.84c2.71,2.71,2.71,7.1,0,9.81-1.35,1.35-3.13,2.03-4.9,2.03Z"/>
</svg>